Coordinates
version=1
nRows=22
nColumns=38
inDegrees=no

Units are S.I. units (second, meters, Newtons, ...)
If the header above contains a line with 'inDegrees', this indicates whether rotational values are in degrees (yes) or radians (no).

endheader
time	pelvis_tilt	pelvis_list	pelvis_rotation	pelvis_tx	pelvis_ty	pelvis_tz	hip_flexion_r	hip_adduction_r	hip_rotation_r	knee_angle_r	ankle_angle_r	subtalar_angle_r	mtp_angle_r	hip_flexion_l	hip_adduction_l	hip_rotation_l	knee_angle_l	ankle_angle_l	subtalar_angle_l	mtp_angle_l	lumbar_extension	lumbar_bending	lumbar_rotation	arm_flex_r	arm_add_r	arm_rot_r	elbow_flex_r	pro_sup_r	wrist_flex_r	wrist_dev_r	arm_flex_l	arm_add_l	arm_rot_l	elbow_flex_l	pro_sup_l	wrist_flex_l	wrist_dev_l
1.69	-0.239265	0.0956449	0.0411417	1.20362	0.971022	-0.328325	-0.15829	0.0624022	0.276222	-0.984039	-0.238565	-0.0357565	-0.0276456	0.797047	0.20746	0.0450594	-0.364188	-0.026733	-0.0730814	-0.0679285	-0.0643608	-0.116547	0.174072	-0.290195	-0.369689	0.148607	2.30427	1.71601	-0.00115532	0.0049211	-0.912383	-0.240785	-0.290159	2.16933	1.63692	0.0221798	0.0340483
1.7	-0.22695	0.0959402	0.0413202	1.20371	0.966603	-0.327849	-0.140047	0.0619436	0.255862	-1.09197	-0.21824	-0.0357565	-0.0276456	0.779501	0.207806	0.0487188	-0.352049	-0.0337973	-0.0730814	-0.0679285	-0.0831778	-0.119684	0.162846	-0.305839	-0.362518	0.139443	2.25588	1.71294	-0.00115532	0.0049211	-0.869063	-0.252347	-0.281842	2.16626	1.63828	0.0221798	0.0340483
1.71	-0.214311	0.0976435	0.0406922	1.20342	0.961319	-0.327532	-0.115636	0.0535395	0.22628	-1.20429	-0.198517	-0.0357565	-0.0276456	0.769368	0.209288	0.0460702	-0.371101	-0.0360538	-0.0730814	-0.0679285	-0.102524	-0.123664	0.149611	-0.320484	-0.351361	0.12832	2.20004	1.70995	-0.00115532	0.0049211	-0.82242	-0.264575	-0.271451	2.15946	1.63871	0.0221798	0.0340483
1.72	-0.201677	0.100661	0.039402	1.20269	0.955267	-0.327325	-0.0853036	0.0381657	0.191416	-1.31843	-0.178853	-0.0357565	-0.0276456	0.766668	0.2121	0.0370782	-0.419683	-0.0319162	-0.0730814	-0.0679285	-0.122114	-0.128497	0.134048	-0.333494	-0.336709	0.115576	2.13783	1.70755	-0.00115532	0.0049211	-0.773008	-0.277017	-0.259566	2.14884	1.63893	0.0221798	0.0340483
1.73	-0.18936	0.104776	0.0377045	1.20147	0.948731	-0.327192	-0.0492298	0.0177595	0.155608	-1.432	-0.158445	-0.0357565	-0.0276456	0.769926	0.216386	0.0230329	-0.492696	-0.019533	-0.0730814	-0.0679285	-0.141752	-0.133989	0.115815	-0.344501	-0.319199	0.101433	2.07091	1.70651	-0.00115532	0.0049211	-0.721233	-0.289236	-0.246789	2.13446	1.63985	0.0221798	0.0340483
1.74	-0.177623	0.109661	0.0358993	1.19979	0.94222	-0.327109	-0.00749698	-0.00508529	0.122964	-1.5427	-0.136501	-0.0357565	-0.0276456	0.776519	0.222244	0.00627695	-0.582586	0.00285664	-0.0730814	-0.0679285	-0.161226	-0.139796	0.0946333	-0.353481	-0.299601	0.0860877	2.00149	1.70753	-0.00115532	0.0049211	-0.667504	-0.300781	-0.233791	2.11661	1.64252	0.0221798	0.0340483
1.75	-0.166685	0.114892	0.0341921	1.19771	0.936236	-0.327062	0.0398522	-0.0274687	0.0968207	-1.64831	-0.112458	-0.0357565	-0.0276456	0.78321	0.229597	-0.0104048	-0.6808	0.036285	-0.0730814	-0.0679285	-0.180233	-0.145393	0.0704253	-0.360805	-0.278822	0.0698135	1.93237	1.71096	-0.00115532	0.0049211	-0.612394	-0.311153	-0.221328	2.09597	1.64796	0.0221798	0.0340483
1.76	-0.156817	0.119875	0.032593	1.1953	0.931034	-0.327033	0.0927218	-0.0466221	0.0793439	-1.74667	-0.0861405	-0.0357565	-0.0276456	0.786672	0.238039	-0.0244614	-0.779041	0.0804038	-0.0730814	-0.0679285	-0.198335	-0.150087	0.0434479	-0.367232	-0.257912	0.053025	1.86669	1.71666	-0.00115532	0.0049211	-0.556761	-0.319795	-0.210218	2.07367	1.65695	0.0221798	0.0340483
1.77	-0.148298	0.123864	0.0308825	1.19267	0.926686	-0.326992	0.150921	-0.0603381	0.0712935	-1.83566	-0.0578166	-0.0357565	-0.0276456	0.784046	0.24677	-0.0340537	-0.870112	0.133274	-0.0730814	-0.0679285	-0.214892	-0.153071	0.0143433	-0.373841	-0.238025	0.0362937	1.80778	1.72403	-0.00115532	0.0049211	-0.501765	-0.326115	-0.201261	2.05123	1.66978	0.0221798	0.0340483
1.78	-0.141442	0.126046	0.0286661	1.1899	0.923301	-0.326905	0.214117	-0.0673032	0.0720031	-1.9133	-0.0281711	-0.0357565	-0.0276456	0.773367	0.254687	-0.0382366	-0.948432	0.191704	-0.0730814	-0.0679285	-0.229086	-0.153536	-0.0159225	-0.381887	-0.220337	0.020289	1.75876	1.73212	-0.00115532	0.0049211	-0.448767	-0.329564	-0.195089	2.03049	1.68608	0.0221798	0.0340483
1.79	-0.13656	0.125698	0.0255154	1.18712	0.921021	-0.326769	0.281793	-0.0672206	0.0795829	-1.97785	0.00180582	-0.0357565	-0.0276456	0.753757	0.260592	-0.036894	-1.01025	0.251867	-0.0730814	-0.0679285	-0.240035	-0.150799	-0.0462085	-0.39262	-0.205895	0.00564238	1.7222	1.7399	-0.00115532	0.0049211	-0.399121	-0.329763	-0.191976	2.01332	1.70481	0.0221798	0.0340483
1.8	-0.133963	0.122295	0.0211261	1.1845	0.919941	-0.326609	0.353251	-0.0607102	0.0912972	-2.02792	0.0310133	-0.0357565	-0.0276456	0.725387	0.263416	-0.0305454	-1.05367	0.309884	-0.0730814	-0.0679285	-0.246898	-0.1444	-0.0753806	-0.407092	-0.195452	-0.0072143	1.69971	1.74668	-0.00115532	0.0049211	-0.353947	-0.326622	-0.191693	2.00136	1.72451	0.0221798	0.0340483
1.81	-0.133941	0.115579	0.015419	1.18218	0.920089	-0.326468	0.427579	-0.0490204	0.104042	-2.06255	0.0584629	-0.0357565	-0.0276456	0.68916	0.262386	-0.0201342	-1.0784	0.362177	-0.0730814	-0.0679285	-0.249016	-0.134133	-0.102447	-0.426015	-0.189322	-0.018202	1.69174	1.75226	-0.00115532	0.0049211	-0.31394	-0.320429	-0.193405	1.99574	1.74345	0.0221798	0.0340483
1.82	-0.136709	0.105561	0.0085452	1.18031	0.921448	-0.326382	0.503588	-0.0336675	0.114833	-2.08122	0.0834634	-0.0357565	-0.0276456	0.646309	0.257084	-0.00685469	-1.08534	0.405605	-0.0730814	-0.0679285	-0.246062	-0.120031	-0.126623	-0.449708	-0.187305	-0.0276719	1.69752	1.75686	-0.00115532	0.0049211	-0.279272	-0.311852	-0.195691	1.99686	1.75974	0.0221798	0.0340483
1.83	-0.142289	0.0924313	0.00082404	1.17901	0.923973	-0.326367	0.579799	-0.016117	0.121216	-2.08383	0.105711	-0.0357565	-0.0276456	0.598073	0.247432	0.00795475	-1.0761	0.437484	-0.0730814	-0.0679285	-0.2381	-0.102334	-0.147332	-0.478115	-0.18873	-0.0363581	1.71522	1.76085	-0.00115532	0.0049211	-0.249617	-0.301849	-0.196715	2.00437	1.77154	0.0221798	0.0340483
1.84	-0.150442	0.076534	-0.00735886	1.17836	0.927601	-0.326419	0.654475	0.00243912	0.121547	-2.07067	0.125257	-0.0357565	-0.0276456	0.545512	0.233617	0.0228797	-1.05259	0.455592	-0.0730814	-0.0679285	-0.225612	-0.0814215	-0.164193	-0.510865	-0.192585	-0.0452095	1.74237	1.76446	-0.00115532	0.0049211	-0.22429	-0.291503	-0.194533	2.01725	1.77727	0.0221798	0.0340483
1.85	-0.160701	0.0583299	-0.0156462	1.1784	0.932249	-0.326522	0.725759	0.0212002	0.115109	-2.04236	0.142374	-0.0357565	-0.0276456	0.48949	0.216023	0.0364977	-1.01678	0.458172	-0.0730814	-0.0679285	-0.209431	-0.0577553	-0.17702	-0.547355	-0.197724	-0.0551512	1.77618	1.76757	-0.00115532	0.0049211	-0.202461	-0.281835	-0.187469	2.03409	1.77621	0.0221798	0.0340483
1.86	-0.172422	0.038364	-0.0237623	1.17913	0.937808	-0.326646	0.791828	0.0397414	0.102096	-1.99975	0.157405	-0.0357565	-0.0276456	0.43072	0.195219	0.0474704	-0.970606	0.443984	-0.0730814	-0.0679285	-0.190632	-0.0318665	-0.185862	-0.586808	-0.203062	-0.0668685	1.81399	1.76967	-0.00115532	0.0049211	-0.183361	-0.273652	-0.174445	2.05336	1.76873	0.0221798	0.0340483
1.87	-0.184846	0.0172602	-0.0315176	1.18053	0.94414	-0.326768	0.851044	0.057904	0.0834867	-1.94384	0.170663	-0.0357565	-0.0276456	0.369867	0.171982	0.0546826	-0.91599	0.412427	-0.0730814	-0.0679285	-0.170395	-0.00437919	-0.191015	-0.62834	-0.207732	-0.0806778	1.85356	1.76999	-0.00115532	0.0049211	-0.166432	-0.267476	-0.155146	2.07367	1.7562	0.0221798	0.0340483
1.88	-0.197233	-0.00421528	-0.0387921	1.18252	0.951068	-0.326875	0.902073	0.0756498	0.06086	-1.8757	0.182392	-0.0357565	-0.0276456	0.307652	0.147321	0.0574292	-0.854976	0.363735	-0.0730814	-0.0679285	-0.149866	0.023982	-0.193011	-0.671025	-0.211175	-0.0965037	1.89317	1.76767	-0.00115532	0.0049211	-0.151391	-0.263548	-0.130023	2.09398	1.74064	0.0221798	0.0340483
1.89	-0.208957	-0.0251774	-0.0455138	1.18499	0.958384	-0.326973	0.943955	0.0929175	0.0361646	-1.7963	0.192788	-0.0357565	-0.0276456	0.24496	0.122482	0.0556051	-0.789841	0.299223	-0.0730814	-0.0679285	-0.130025	0.0523697	-0.192557	-0.713952	-0.21314	-0.113939	1.93172	1.76198	-0.00115532	0.0049211	-0.138209	-0.261883	-0.100144	2.11362	1.72432	0.0221798	0.0340483
1.9	-0.219569	-0.0446836	-0.051634	1.18779	0.965857	-0.32708	0.976137	0.109532	0.0114931	-1.70646	0.202034	-0.0357565	-0.0276456	0.182902	0.0989057	0.0498534	-0.723188	0.221502	-0.0730814	-0.0679285	-0.111569	0.0798308	-0.190448	-0.756269	-0.213651	-0.132348	1.96857	1.75254	-0.00115532	0.0049211	-0.127057	-0.262349	-0.0669611	2.13231	1.70926	0.0221798	0.0340483
